<svg width="1440" height="1024" viewBox="0 0 1440 1024" fill="none" xmlns="http://www.w3.org/2000/svg">
<rect width="1440" height="1024" fill="#E8E1D4"/>
<rect x="1095" y="419" width="14" height="204" fill="#333333"/>
<rect x="330" y="419" width="14" height="204" fill="#333333"/>
<rect x="381" y="532" width="685" height="37" fill="#D66161"/>
<path d="M428.266 479.459H410.541V455.826H428.266V449.918H404.633V509H381V426.285H451.898V509H428.266V479.459ZM528.705 449.918H481.439V455.826H528.705V509H457.807V485.367H505.072V479.459H457.807V426.285H528.705V449.918ZM558.246 479.459V509H534.613V426.285H558.246V455.826H581.879V426.285H605.512V509H581.879V479.459H558.246ZM635.053 426.285V509H611.42V426.285H635.053ZM711.859 449.918H664.594V455.826H711.859V509H640.961V485.367H688.227V479.459H640.961V426.285H711.859V449.918ZM741.4 479.459V509H717.768V426.285H741.4V455.826H765.033V426.285H788.666V509H765.033V479.459H741.4ZM830.023 509V473.551H853.656V485.367H877.289V426.285H900.922V509H830.023ZM930.463 485.367H954.096V449.918H930.463V485.367ZM906.83 509V426.285H977.729V509H906.83ZM1007.27 485.367H1030.9L1024.99 479.459H1013.18V455.826H1024.99L1030.9 449.918H1007.27V485.367ZM983.637 509V426.285H1054.54V458.78L1045.67 467.643L1054.54 476.505V509H983.637Z" fill="#333333"/>
<path d="M392.719 600.352H386.859V609.141H392.719V606.211H398.578V615H381V594.492H398.578V603.281H392.719V600.352ZM405.902 609.141H411.762V600.352H405.902V609.141ZM400.043 615V594.492H417.621V615H400.043ZM424.945 600.352V615H419.086V594.492H445.453V615H439.594V600.352H435.199V615H429.34V600.352H424.945ZM452.777 600.352V615H446.918V594.492H464.496V607.676H454.242V601.816H458.637V600.352H452.777ZM465.961 615V594.492H471.82V609.141H477.68V594.492H483.539V615H465.961ZM496.723 600.352V615H490.863V600.352H485.004V594.492H502.582V600.352H496.723ZM509.906 609.141H521.625V615H504.047V594.492H521.625V600.352H509.906V609.141ZM511.371 601.816H521.625V607.676H511.371V601.816ZM530.414 601.831L534.809 601.816V600.352H528.949V615H523.09V594.492H540.668V607.676H537.738L543.598 615H536.273L530.414 607.676V601.831ZM568.5 600.352H556.781V601.816H568.5V615H550.922V609.141H562.641V607.676H550.922V594.492H568.5V600.352ZM581.684 600.352H575.824V609.141H581.684V606.211H587.543V615H569.965V594.492H587.543V603.281H581.684V600.352ZM594.867 594.492V615H589.008V594.492H594.867ZM602.191 609.141H613.91V615H596.332V594.492H613.91V600.352H602.191V609.141ZM603.656 601.816H613.91V607.676H603.656V601.816ZM621.234 603.281V615H615.375V594.492H621.234L627.094 600.352V594.492H632.953V615H627.094V609.141L621.234 603.281ZM646.137 600.352H640.277V609.141H646.137V606.211H651.996V615H634.418V594.492H651.996V603.281H646.137V600.352ZM659.32 609.141H671.039V615H653.461V594.492H671.039V600.352H659.32V609.141ZM660.785 601.816H671.039V607.676H660.785V601.816ZM681.293 615V594.492H698.871V607.676H690.082V601.816H693.012V600.352H687.152V609.141H698.871V615H681.293ZM709.125 615V594.492H714.984V609.141H720.844V594.492H726.703V615H709.125ZM734.027 603.281V615H728.168V594.492H734.027L739.887 600.352V594.492H745.746V615H739.887V609.141L734.027 603.281ZM758.93 600.352V594.492H764.789V603.281L753.07 615H747.211V594.492H753.07V606.211L758.93 600.352ZM772.113 594.492V615H766.254V594.492H772.113ZM779.438 609.141H791.156V615H773.578V594.492H791.156V600.352H779.438V609.141ZM780.902 601.816H791.156V607.676H780.902V601.816ZM799.945 601.831L804.34 601.816V600.352H798.48V615H792.621V594.492H810.199V607.676H807.27L813.129 615H805.805L799.945 607.676V601.831ZM829.242 600.352H817.523V601.816H829.242V615H811.664V609.141H823.383V607.676H811.664V594.492H829.242V600.352ZM836.566 594.492V615H830.707V594.492H836.566ZM849.75 600.352V615H843.891V600.352H838.031V594.492H855.609V600.352H849.75ZM862.934 607.676H857.074V594.492H862.934V601.816H868.793V594.492H874.652V607.676H868.793V615H862.934V607.676ZM890.766 609.141H896.625V600.352H890.766V609.141ZM884.906 615V594.492H902.484V615H884.906ZM909.809 615H903.949V594.492H921.527V600.352H909.809V615ZM911.273 601.816H921.527V607.676H911.273V601.816ZM937.641 607.676V615H931.781V594.492H937.641V601.816H943.5V594.492H949.359V615H943.5V607.676H937.641ZM956.684 609.141H962.543V600.352H956.684V609.141ZM950.824 615V594.492H968.402V615H950.824ZM969.867 615V594.492H975.727V609.141H981.586V594.492H987.445V615H969.867ZM1006.49 600.352H994.77V601.816H1006.49V615H988.91V609.141H1000.63V607.676H988.91V594.492H1006.49V600.352ZM1019.67 600.352V615H1013.81V600.352H1007.95V594.492H1025.53V600.352H1019.67ZM1032.86 609.141H1038.71V600.352H1032.86V609.141ZM1027 615V594.492H1044.57V615H1027ZM1051.9 603.281V615H1046.04V594.492H1051.9L1057.76 600.352V594.492H1063.62V615H1057.76V609.141L1051.9 603.281Z" fill="#333333"/>
</svg>
